<?xml version="1.0" encoding="utf-8"?>
<!-- Generator: Adobe Illustrator 27.2.0, SVG Export Plug-In . SVG Version: 6.00 Build 0)  -->
<svg version="1.1" id="Layer_2" xmlns="http://www.w3.org/2000/svg" xmlns:xlink="http://www.w3.org/1999/xlink" x="0px" y="0px"
	 viewBox="0 0 125 40" style="enable-background:new 0 0 125 40;" xml:space="preserve">
<style type="text/css">
	.st0{fill:none;}
</style>
<g>
	<g>
		<path d="M42.999,24.575c-1.049,0-1.532,0.745-1.408,1.125s0.731,0.448,1.078,0.589c0.348,0.141,0.831,0.713,0.831,1.608
			c0,0.896-0.619,2.469-2.483,3.618c-1.865,1.149-4.498,2.156-7.83,2.156c-2.295,0-4.467-0.578-6.308-1.46
			c0.979-1.951,1.473-4.029,1.473-5.929c0-5.974-2.156-8.614-7.577-11.489c-0.556-0.295-1.103-0.581-1.636-0.861
			c0.666-1.956,1.747-3.853,3.221-5.308c2.634-2.598,5.957-4.083,10.287-4.083s7.035,1.768,8.095,3.641
			c1.061,1.874,0.954,4.136,0.954,5.479h0.848c0,0,0.035-7.212,0.035-7.601c0-0.389-0.539-0.813-2.13-1.405
			c-1.591-0.592-3.591-1.364-7.315-1.364c-3.355,0-7.56,0.594-11.738,4.33l-0.081-6.068C20.928,1.052,19.09,0,15.89,0
			c-3.889,0-6.982,2.934-6.982,6.575c0,4.761,4.036,7.188,7.379,9.037c-0.435,1.542-0.599,3.128-0.385,4.65
			c-1.547-1.557-3.794-2.887-6.959-2.887C5.232,17.375,0,21.193,0,26.425C0,34.591,6.363,40,13.928,40
			c5.732,0,9.78-2.792,12.101-6.317c1.832,0.71,4.023,1.191,6.6,1.191c8.626,0,12.762-5.055,12.762-7.548
			C45.391,25.983,44.484,24.575,42.999,24.575z M25.488,26.366c0,1.556-0.322,3.072-0.912,4.476c-0.47-0.35-2.515-1.943-3.895-4.122
			c-1.567-2.475-2.333-5.014-2.333-8.249c0-0.537,0.039-1.096,0.114-1.666C21.754,18.577,25.488,20.575,25.488,26.366z
			 M10.853,5.438c0-2.31,1.644-4.13,4.684-4.13c3.04,0,4.49,1.679,4.772,4.719c0.075,1.173,0.074,2.268,0.071,2.57
			c-0.12,0.123-0.24,0.248-0.36,0.376c-1.039,1.141-1.978,2.508-2.706,3.985C13.566,10.899,10.853,8.914,10.853,5.438z
			 M12.903,38.48c-5.138,0-10.605-4.266-10.605-9.922s2.828-9.875,7.4-9.875c3.464,0,7.188,3.629,7.188,7.471
			c0,4.054-2.445,5.998-4.531,5.998c-1.069,0-1.741-0.38-1.741-1.202H9.633c0,1.494,1.069,2.678,3.42,2.678
			c3.562,0,5.376-3.149,5.659-5.353l0.009-0.177c0.486,0.705,2.082,2.788,4.965,4.461C21.52,36.035,17.584,38.48,12.903,38.48z"/>
		<path d="M32.064,10.464c0,0-1.037-1.974-2.875-1.974c-1.296,0-2.946,1.143-2.946,2.993s1.314,4.195,5.821,7.341
			c2.05-1.22,5.868-4.507,5.868-7.123c0-1.273-0.937-3.211-2.855-3.211C33.478,8.49,32.514,9.801,32.064,10.464z"/>
	</g>
	<rect class="st0" width="125" height="40"/>
</g>
</svg>
